<svg width="173" height="24" viewBox="0 0 173 24" fill="none" xmlns="http://www.w3.org/2000/svg">
    <g clip-path="url(#clip0_274_14)">
        <path
            d="M9.04922 19.28C4.03722 19.28 0.845215 16.508 0.845215 11.944C0.845215 7.35199 4.03722 4.60799 9.04922 4.60799C13.8653 4.60799 16.9453 7.07199 16.9453 10.852V11.3H11.7093V11.076C11.7093 9.61999 10.6453 9.31199 8.93722 9.31199C7.00522 9.31199 6.08122 9.73199 6.08122 11.944C6.08122 14.128 7.00522 14.548 8.93722 14.548C10.6453 14.548 11.7093 14.268 11.7093 12.812V12.56H16.9453V13.036C16.9453 16.788 13.8653 19.28 9.04922 19.28ZM26.1638 19.28C21.2638 19.28 17.9318 16.508 17.9318 11.944C17.9318 7.35199 21.2638 4.60799 26.1638 4.60799C31.0638 4.60799 34.3958 7.35199 34.3958 11.944C34.3958 16.508 31.0638 19.28 26.1638 19.28ZM26.1638 14.632C28.5438 14.632 29.1878 13.988 29.1878 11.944C29.1878 9.89999 28.5438 9.22799 26.1638 9.22799C23.7838 9.22799 23.1398 9.89999 23.1398 11.944C23.1398 13.988 23.7838 14.632 26.1638 14.632ZM40.9244 19H35.6604V4.88799H40.5884V9.17199H40.8684C41.1764 6.81999 42.4644 4.60799 46.0204 4.60799C49.3524 4.60799 50.9484 6.62399 51.2284 9.17199H51.5084C51.8164 6.81999 53.1604 4.60799 56.8284 4.60799C60.4404 4.60799 62.1484 6.90399 62.1484 9.95599V19H56.8844V11.888C56.8844 9.92799 56.3244 9.31199 54.1404 9.31199C51.9844 9.31199 51.5364 9.89999 51.5364 11.72V19H46.2724V11.888C46.2724 9.92799 45.7124 9.31199 43.5284 9.31199C41.3724 9.31199 40.9244 9.89999 40.9244 11.72V19ZM68.9791 19H63.7151V4.88799H68.6431V9.17199H68.9231C69.2311 6.81999 70.5191 4.60799 74.0751 4.60799C77.4071 4.60799 79.0031 6.62399 79.2831 9.17199H79.5631C79.8711 6.81999 81.2151 4.60799 84.8831 4.60799C88.4951 4.60799 90.2031 6.90399 90.2031 9.95599V19H84.9391V11.888C84.9391 9.92799 84.3791 9.31199 82.1951 9.31199C80.0391 9.31199 79.5911 9.89999 79.5911 11.72V19H74.3271V11.888C74.3271 9.92799 73.7671 9.31199 71.5831 9.31199C69.4271 9.31199 68.9791 9.89999 68.9791 11.72V19ZM99.6378 19.28C94.8498 19.28 91.4898 17.236 91.4898 11.944C91.4898 7.35199 94.8218 4.60799 99.5258 4.60799C104.398 4.60799 107.506 7.04399 107.506 11.58C107.506 12.056 107.478 12.42 107.422 12.924H96.3618C96.4458 14.632 97.2018 15.108 99.4418 15.108C101.57 15.108 102.13 14.744 102.13 13.904V13.596H107.394V13.932C107.394 17.068 104.398 19.28 99.6378 19.28ZM99.4138 8.63999C97.4818 8.63999 96.6698 9.05999 96.4458 10.264H102.41C102.214 9.05999 101.374 8.63999 99.4138 8.63999ZM114.178 19H108.914V4.88799H113.842V9.17199H114.122C114.43 6.81999 115.97 4.60799 119.75 4.60799C123.558 4.60799 125.35 6.90399 125.35 9.95599V19H120.086V11.888C120.086 9.92799 119.358 9.31199 117.062 9.31199C114.738 9.31199 114.178 9.89999 114.178 11.72V19ZM137.462 19H133.766C130.238 19 128.138 17.292 128.138 13.624V9.19999H126.066V4.88799H128.138V2.45199H133.402V4.88799H137.462V9.19999H133.402V12.868C133.402 13.988 133.738 14.268 134.942 14.268H137.462V19ZM143.199 3.54399H138.999V0.23999H143.199V3.54399ZM143.199 19H138.999V4.97199H143.199V19ZM150.717 19H146.517V8.44399H144.529V4.97199H146.601C147.049 2.14399 149.513 0.23999 153.825 0.23999H155.057V3.29199H153.153C151.305 3.29199 150.437 3.59999 150.549 4.97199H155.057V8.44399H150.717V19ZM159.132 23.76H156.836V19.952H160.28C161.316 19.952 161.764 19.672 162.044 19.056L155.184 4.97199H159.944L162.912 11.384L164.088 14.688H164.368L165.488 11.356L168.148 4.97199H172.824L165.88 20.008C164.536 22.948 162.66 23.76 159.132 23.76Z"
            fill="white" />
    </g>
    <defs>
        <clipPath id="clip0_274_14">
            <rect width="173" height="24" fill="white" />
        </clipPath>
    </defs>
</svg>