<svg width="307" height="310" viewBox="0 0 307 310" fill="none" xmlns="http://www.w3.org/2000/svg">
<path fill-rule="evenodd" clip-rule="evenodd" d="M7.43721 52.7675C3.05286 53.9299 0 57.8977 0 62.4335V261.431C0 267.995 6.21764 272.779 12.5628 271.097L89.2581 250.763V299.431C89.2581 305.995 95.4757 310.779 101.821 309.097L299.563 256.669C303.947 255.506 307 251.539 307 247.003V48.0054C307 41.441 300.782 36.657 294.437 38.3394L217.742 58.6739V10.0054C217.742 3.44103 211.524 -1.34293 205.179 0.339385L7.43721 52.7675ZM217.742 58.6739L96.6953 90.7675C92.3109 91.9299 89.2581 95.8977 89.2581 100.434V250.763L210.305 218.669C214.689 217.507 217.742 213.539 217.742 209.003V58.6739Z" fill="white"/>
</svg>
