<svg xmlns="http://www.w3.org/2000/svg" viewBox="0 0 48 48"><g><path fill="#4285F4" d="M43.611 20.083H42V20H24v8h11.303C34.73 32.091 29.865 35 24 35c-6.627 0-12-5.373-12-12s5.373-12 12-12c2.761 0 5.304.99 7.312 2.617l6.093-6.093C33.527 5.099 28.977 3 24 3 12.954 3 4 11.954 4 23s8.954 20 20 20c11.045 0 19.799-7.954 19.799-20 0-1.341-.138-2.651-.388-3.917z"/><path fill="#34A853" d="M6.306 14.691l6.571 4.819C14.655 16.104 19.001 13 24 13c2.761 0 5.304.99 7.312 2.617l6.093-6.093C33.527 5.099 28.977 3 24 3c-7.732 0-14.41 4.41-17.694 11.691z"/><path fill="#FBBC05" d="M24 44c5.798 0 10.654-1.924 14.199-5.229l-6.537-5.357C29.865 35 24 35 24 35c-5.865 0-10.73-2.909-13.303-7.083l-6.571 4.819C9.59 39.59 16.268 44 24 44z"/><path fill="#EA4335" d="M43.611 20.083H42V20H24v8h11.303C34.073 32.091 29.865 35 24 35c-5.865 0-10.73-2.909-13.303-7.083l-6.571 4.819C9.59 39.59 16.268 44 24 44c7.732 0 14.41-4.41 17.694-11.691z"/></g></svg>
